
<svg width="52px" height="95px" viewBox="0 0 52 95" version="1.1" xmlns="http://www.w3.org/2000/svg" xmlns:xlink="http://www.w3.org/1999/xlink">
    <!-- Generator: Sketch 43.2 (39069) - http://www.bohemiancoding.com/sketch -->
    <desc>Created with Sketch.</desc>
    <defs></defs>
    <g id="Page-1" stroke="none" stroke-width="1" fill="none" fill-rule="evenodd">
        <g id="Artboard" transform="translate(-117.000000, -100.000000)">
            <g id="Group" transform="translate(117.000000, 100.000000)">
                <rect id="Rectangle" fill="#70C70B" x="18" y="8" width="8" height="8"></rect>
                <rect id="Rectangle" fill="#70C70B" x="27" y="8" width="8" height="8"></rect>
                <rect id="Rectangle" fill="#70C70B" x="8" y="64" width="8" height="8"></rect>
                <rect id="Rectangle" fill="#70C70B" x="30" y="72" width="8" height="8"></rect>
                <rect id="Rectangle" fill="#70C70B" x="22" y="24" width="8" height="8"></rect>
                <rect id="Rectangle" fill="#70C70B" x="29" y="48" width="8" height="8"></rect>
                <rect id="Rectangle" fill="#70C70B" x="16" y="48" width="8" height="8"></rect>
                <rect id="Rectangle" fill="#70C70B" x="16" y="40" width="8" height="8"></rect>
                <rect id="Rectangle" fill="#70C70B" x="29" y="40" width="8" height="8"></rect>
                <rect id="Rectangle" fill="#70C70B" x="22" y="75" width="8" height="8"></rect>
                <rect id="Rectangle" fill="#70C70B" x="42" y="56" width="8" height="8"></rect>
                <rect id="Rectangle" fill="#70C70B" x="15" y="72" width="8" height="8"></rect>
                <rect id="Rectangle" fill="#70C70B" x="15" y="66" width="8" height="8"></rect>
                <rect id="Rectangle" fill="#70C70B" x="44" y="48" width="8" height="8"></rect>
                <rect id="Rectangle" fill="#70C70B" x="2" y="56" width="8" height="8"></rect>
                <rect id="Rectangle" fill="#70C70B" x="0" y="48" width="8" height="8"></rect>
                <rect id="Rectangle" fill="#70C70B" x="37" y="64" width="8" height="8"></rect>
                <rect id="Rectangle" fill="#70C70B" x="0" y="40" width="8" height="8"></rect>
                <rect id="Rectangle" fill="#70C70B" x="44" y="40" width="8" height="8"></rect>
                <rect id="Rectangle" fill="#70C70B" x="3" y="32" width="8" height="8"></rect>
                <rect id="Rectangle" fill="#70C70B" x="7" y="24" width="8" height="8"></rect>
                <rect id="Rectangle" fill="#70C70B" x="11" y="16" width="8" height="8"></rect>
                <rect id="Rectangle" fill="#70C70B" x="41" y="32" width="8" height="8"></rect>
                <rect id="Rectangle" fill="#70C70B" x="37" y="24" width="8" height="8"></rect>
                <rect id="Rectangle" fill="#70C70B" x="33" y="16" width="8" height="8"></rect>
                <rect id="Rectangle" fill="#70C70B" x="23" y="0" width="8" height="8"></rect>
                <rect id="Rectangle" fill="#8B572A" x="22" y="83" width="8" height="8"></rect>
                <rect id="Rectangle" fill="#8B572A" x="23" y="87" width="8" height="8"></rect>
                <rect id="Rectangle" fill="#417505" x="10" y="56" width="8" height="8"></rect>
                <rect id="Rectangle" fill="#417505" x="8" y="48" width="8" height="8"></rect>
                <rect id="Rectangle" fill="#417505" x="8" y="40" width="8" height="8"></rect>
                <rect id="Rectangle" fill="#417505" x="11" y="32" width="8" height="8"></rect>
                <rect id="Rectangle" fill="#417505" x="14" y="24" width="8" height="8"></rect>
                <rect id="Rectangle" fill="#417505" x="15" y="64" width="8" height="8"></rect>
                <rect id="Rectangle" fill="#417505" x="30" y="64" width="8" height="8"></rect>
                <rect id="Rectangle" fill="#417505" x="23" y="64" width="8" height="8"></rect>
                <rect id="Rectangle" fill="#417505" x="22" y="67" width="8" height="8"></rect>
                <rect id="Rectangle" fill="#417505" x="22" y="48" width="8" height="8"></rect>
                <rect id="Rectangle" fill="#417505" x="22" y="40" width="8" height="8"></rect>
                <rect id="Rectangle" fill="#417505" x="34" y="56" width="8" height="8"></rect>
                <rect id="Rectangle" fill="#417505" x="36" y="48" width="8" height="8"></rect>
                <rect id="Rectangle" fill="#417505" x="36" y="40" width="8" height="8"></rect>
                <rect id="Rectangle" fill="#417505" x="18" y="16" width="8" height="8"></rect>
                <rect id="Rectangle" fill="#417505" x="27" y="16" width="8" height="8"></rect>
                <rect id="Rectangle" fill="#417505" x="33" y="32" width="8" height="8"></rect>
                <rect id="Rectangle" fill="#417505" x="30" y="24" width="8" height="8"></rect>
                <rect id="Rectangle" fill="#70C70B" x="18" y="32" width="8" height="8"></rect>
                <rect id="Rectangle-2" fill="#8B572A" x="26" y="8" width="1" height="75"></rect>
                <rect id="Rectangle" fill="#70C70B" x="18" y="56" width="8" height="8"></rect>
                <rect id="Rectangle" fill="#70C70B" x="27" y="32" width="8" height="8"></rect>
                <rect id="Rectangle" fill="#70C70B" x="27" y="56" width="8" height="8"></rect>
            </g>
        </g>
    </g>
</svg>
