<svg xmlns="http://www.w3.org/2000/svg" width="56" height="52" viewBox="0 0 56 52"><path d="M56 0L0 0 0 38.733 36.012 38.733 49 51.8 49 38.733 56 38.733 56 0Z" fill="#0078D7"/><path d="M23.128 29.39C33.037 29.39 38.455 21.135 38.455 13.977 38.455 13.742 38.45 13.509 38.44 13.276 39.492 12.512 40.406 11.557 41.127 10.471 40.162 10.903 39.123 11.193 38.034 11.324 39.146 10.653 40 9.592 40.403 8.328 39.362 8.948 38.209 9.399 36.982 9.643 35.999 8.59 34.599 7.931 33.05 7.931 30.074 7.931 27.662 10.357 27.662 13.348 27.662 13.773 27.709 14.186 27.802 14.583 23.324 14.356 19.354 12.201 16.697 8.923 16.235 9.723 15.968 10.653 15.968 11.646 15.968 13.525 16.919 15.184 18.365 16.155 17.481 16.127 16.651 15.883 15.925 15.477 15.925 15.5 15.925 15.522 15.925 15.547 15.925 18.17 17.781 20.361 20.246 20.857 19.794 20.981 19.317 21.048 18.826 21.048 18.479 21.048 18.142 21.013 17.813 20.95 18.499 23.102 20.488 24.669 22.846 24.712 21.002 26.166 18.679 27.031 16.155 27.031 15.721 27.031 15.292 27.006 14.87 26.956 17.254 28.493 20.085 29.39 23.128 29.39" fill="#FFF"/></svg>