<svg xmlns="http://www.w3.org/2000/svg" viewBox="0 0 19.28 18.93"><defs><style>.cls-1{fill:#36474f;}.cls-2{fill:#faa600;}.cls-3{fill:#f8a900;}</style></defs><title>ODl4W2.tif (2)</title><g id="Layer_2" data-name="Layer 2"><g id="Layer_1-2" data-name="Layer 1"><g id="ODl4W2.tif"><path class="cls-1" d="M11.15,12l-.63.58a4.64,4.64,0,0,1-3.23,1.16,4.21,4.21,0,0,1-2-.39A3.19,3.19,0,0,1,3.5,10.76a4.57,4.57,0,0,1,.18-2.23A4,4,0,0,1,5.86,6.19a9,9,0,0,1,2.79-.72c.63-.08,1.27-.13,1.9-.2.06,0,.15-.08.15-.13a9.88,9.88,0,0,0-.07-1.33A1.43,1.43,0,0,0,9.32,2.54,2.18,2.18,0,0,0,7.57,3,1.72,1.72,0,0,0,7,4c-.12.43-.25.51-.68.46l-2-.25c-.32,0-.47-.21-.41-.51A4.12,4.12,0,0,1,6.69.43,7.3,7.3,0,0,1,9.87,0a6,6,0,0,1,2.75.85A2.93,2.93,0,0,1,14,3.29c.07,1.37.05,2.74.06,4.1,0,.64,0,1.28,0,1.92a2.83,2.83,0,0,0,.77,1.81,1.5,1.5,0,0,1,.19.25A.43.43,0,0,1,15,12l-1.78,1.5a.52.52,0,0,1-.76,0c-.34-.34-.65-.7-1-1C11.36,12.27,11.26,12.12,11.15,12Zm-.45-4a5.66,5.66,0,0,1,0-.58c0-.16-.06-.22-.22-.2-.45,0-.9,0-1.34.12A2.29,2.29,0,0,0,7,10.1a1.46,1.46,0,0,0,2,1.17,2.38,2.38,0,0,0,1.38-1.46A4.62,4.62,0,0,0,10.7,7.93Z"/><path class="cls-2" d="M8.94,18.93a10.81,10.81,0,0,1-5.47-1.62A24.89,24.89,0,0,1,.2,14.89.46.46,0,0,1,0,14.38a.37.37,0,0,1,.37-.29.92.92,0,0,1,.42.12c.88.45,1.75.93,2.64,1.36a14.48,14.48,0,0,0,3.72,1.27,11.54,11.54,0,0,0,3.16.11,19.89,19.89,0,0,0,5.87-1.54.94.94,0,0,1,.5,0,.46.46,0,0,1,.37.41.49.49,0,0,1-.25.53c-.63.39-1.24.81-1.9,1.14a13.68,13.68,0,0,1-4.23,1.31C10.11,18.85,9.52,18.87,8.94,18.93Z"/><path class="cls-3" d="M17.86,13.35c.25,0,.58.06.91.13a.57.57,0,0,1,.51.63,4,4,0,0,1-1.25,3,.48.48,0,0,1-.5.13.33.33,0,0,1-.25-.31,1.36,1.36,0,0,1,.07-.35c.15-.48.33-1,.46-1.44s.07-.56-.42-.54-1,.08-1.54.12a.77.77,0,0,1-.37,0,.55.55,0,0,1-.25-.31.4.4,0,0,1,.22-.43,3.31,3.31,0,0,1,1.63-.61Z"/></g></g></g></svg>