<svg xmlns="http://www.w3.org/2000/svg" viewBox="0 0 20 16.15"><defs><style>.cls-1{fill:#ff8c00;}.cls-2{fill:#e81123;}.cls-3{fill:#0f0f0f;}</style></defs><title>Asset 48</title><g id="Layer_2" data-name="Layer 2"><g id="Layer_1-2" data-name="Layer 1"><path class="cls-1" d="M20,4.75c.11,1.11-.11,2.45-.89,2.56-1.22.11-.56-1.23-.56-2a3.88,3.88,0,0,0-3.9-3.9c-.55,0-1.78.34-1.67-.78.11-.55.56-.55,1-.55A5.15,5.15,0,0,1,19.86,4.3C20,4.3,20,4.52,20,4.75Z"/><path class="cls-2" d="M14.73,7.42c1.45.78,3.13,1.12,2.79,3.46a3.61,3.61,0,0,1-.78,1.78C14.4,16,7.27,17.34,2.81,14.89,1.36,14-.2,12.77,0,10.32.24,8.2,1.69,6.53,3,5.19a10.78,10.78,0,0,1,4.68-2.9c2.12-.55,2.68,1.23,2.12,2.9,1.23-.11,3.79-1.45,4.9-.11C15.18,5.53,15,6.53,14.73,7.42Zm-1.56,5.35a3.12,3.12,0,0,0,.9-2.23c0-2.78-3.57-3.79-6.25-3.56A8.28,8.28,0,0,0,4.26,8.09a4.1,4.1,0,0,0-2.12,2.56c-.56,2.79,2.45,4.13,4.68,4.24a8.15,8.15,0,0,0,6.35-2.12Z"/><path class="cls-1" d="M17.3,4.75c.11.89-.11,1.56-.67,1.67-.78,0-.56-.56-.56-1.34A1.57,1.57,0,0,0,15.29,4c-.67-.34-1.67.22-1.67-.67,0-.67.56-.56.89-.67A2.51,2.51,0,0,1,17.3,4.75Z"/><path class="cls-3" d="M10.72,10.32c1.23,3.57-5,5.24-6.13,2.23-.78-2.12,1.12-3.68,3-3.9A2.67,2.67,0,0,1,10.72,10.32Zm-2.9.56c.12.22.34.22.56.11s.22-.22.22-.34C8.6,10.32,7.82,10.32,7.82,10.88Zm-1,1.89c1-.22,1.23-2.23-.45-1.89C5.15,11.32,5.37,13.22,6.82,12.77Z"/></g></g></svg>