<svg xmlns="http://www.w3.org/2000/svg" viewBox="0 0 19 15.81"><defs><style>.cls-1{fill:#fff;}</style></defs><title>wechat</title><g id="Layer_2" data-name="Layer 2"><g id="Layer_1-2" data-name="Layer 1"><g id="lr0cB2.tif"><path class="cls-1" d="M0,5.57c.06-.3.09-.61.17-.91a5.82,5.82,0,0,1,2.7-3.53A7.54,7.54,0,0,1,7.68,0,7.18,7.18,0,0,1,12,1.85,5.91,5.91,0,0,1,13.55,4.2a.4.4,0,0,1-.36.53c-.21,0-.43,0-.65,0A7,7,0,0,0,7.36,7.34a4.55,4.55,0,0,0-1,3.19,4.88,4.88,0,0,0,.12.75c.07.34-.1.57-.44.52-.53-.09-1-.23-1.57-.33a.48.48,0,0,0-.29,0c-.64.35-1.26.72-1.89,1.07-.23.13-.4.13-.54,0s-.15-.3,0-.53c.25-.52.5-1,.75-1.57l-.2-.15A5.55,5.55,0,0,1,0,6.38s0-.1,0-.14ZM8.71,3.15a.8.8,0,0,0-.8.8.8.8,0,1,0,1.6,0A.8.8,0,0,0,8.71,3.15Zm-4,0A.79.79,0,0,0,4,4a.8.8,0,0,0,.8.8.8.8,0,0,0,0-1.6Z"/><path class="cls-1" d="M16.86,14l.49,1.21a.42.42,0,0,1-.06.51c-.13.13-.3.14-.53,0L15,14.88a.48.48,0,0,0-.29,0A7,7,0,0,1,9.36,14a4.56,4.56,0,0,1-2-2.53,3.92,3.92,0,0,1,1-4A6.06,6.06,0,0,1,12,5.62a7,7,0,0,1,4.35.7,4.84,4.84,0,0,1,2.41,2.57A4,4,0,0,1,17.9,13,9.69,9.69,0,0,1,16.86,14ZM15.07,7.9a.8.8,0,0,0,0,1.6.8.8,0,0,0,0-1.6Zm-4,0a.8.8,0,0,0-.81.8.82.82,0,0,0,.81.8.8.8,0,0,0,0-1.6Z"/></g></g></g></svg>