<svg version="1.1" xmlns="http://www.w3.org/2000/svg" width="335.15625" height="443"><defs/><g><g transform="translate(-478,-214) scale(1,1)"><rect fill="#C0C0C0" stroke="none" x="744" y="519" width="19.600000000000023" height="15" opacity="0.2"/></g><g transform="translate(-478,-214) scale(1,1)"><rect fill="#C0C0C0" stroke="none" x="744" y="533" width="49" height="25" opacity="0.2"/></g><g transform="translate(-478,-214) scale(1,1)"><rect fill="#ffffd8" stroke="none" x="737" y="527" width="49" height="24"/></g><g transform="translate(-478,-214) scale(1,1)"><path fill="none" stroke="#000000" d="M 737 527 L 786 527 L 786 551 L 737 551 L 737 527 Z Z" stroke-miterlimit="10"/></g><g transform="translate(-478,-214) scale(1,1)"><rect fill="#ffffd8" stroke="none" x="737" y="512" width="19.600000000000023" height="15"/></g><g transform="translate(-478,-214) scale(1,1)"><path fill="none" stroke="#000000" d="M 737 512 L 756.6 512 L 756.6 527 L 737 527 L 737 512 Z Z" stroke-miterlimit="10"/></g><g transform="translate(-478,-214) scale(1,1)"><rect fill="#ffffd8" stroke="none" x="737" y="526" width="49" height="25"/></g><g transform="translate(-478,-214) scale(1,1)"><path fill="none" stroke="#000000" d="M 737 526 L 786 526 L 786 551 L 737 551 L 737 526 Z Z" stroke-miterlimit="10"/></g><g transform="translate(-478,-214) scale(1,1)"><g><path fill="none" stroke="none"/><text fill="#000000" stroke="none" font-family="Arial" font-size="13px" font-style="normal" font-weight="bold" text-decoration="none" x="750.655029296875" y="546.5">dao</text></g></g><g transform="translate(-478,-214) scale(1,1)"><rect fill="#C0C0C0" stroke="none" x="737" y="615" width="24.978906250000023" height="15" opacity="0.2"/></g><g transform="translate(-478,-214) scale(1,1)"><rect fill="#C0C0C0" stroke="none" x="737" y="629" width="62.447265625" height="25" opacity="0.2"/></g><g transform="translate(-478,-214) scale(1,1)"><rect fill="#ffffd8" stroke="none" x="730" y="623" width="62.447265625" height="24"/></g><g transform="translate(-478,-214) scale(1,1)"><path fill="none" stroke="#000000" d="M 730 623 L 792.447265625 623 L 792.447265625 647 L 730 647 L 730 623 Z Z" stroke-miterlimit="10"/></g><g transform="translate(-478,-214) scale(1,1)"><rect fill="#ffffd8" stroke="none" x="730" y="608" width="24.978906250000023" height="15"/></g><g transform="translate(-478,-214) scale(1,1)"><path fill="none" stroke="#000000" d="M 730 608 L 754.97890625 608 L 754.97890625 623 L 730 623 L 730 608 Z Z" stroke-miterlimit="10"/></g><g transform="translate(-478,-214) scale(1,1)"><rect fill="#ffffd8" stroke="none" x="730" y="622" width="62.447265625" height="25"/></g><g transform="translate(-478,-214) scale(1,1)"><path fill="none" stroke="#000000" d="M 730 622 L 792.447265625 622 L 792.447265625 647 L 730 647 L 730 622 Z Z" stroke-miterlimit="10"/></g><g transform="translate(-478,-214) scale(1,1)"><g><path fill="none" stroke="none"/><text fill="#000000" stroke="none" font-family="Arial" font-size="13px" font-style="normal" font-weight="bold" text-decoration="none" x="736.655029296875" y="642.5">dao.impl</text></g></g><g transform="translate(-478,-214) scale(1,1)"><rect fill="#C0C0C0" stroke="none" x="742" y="327" width="21.5283203125" height="15" opacity="0.2"/></g><g transform="translate(-478,-214) scale(1,1)"><rect fill="#C0C0C0" stroke="none" x="742" y="341" width="53.82080078125" height="25" opacity="0.2"/></g><g transform="translate(-478,-214) scale(1,1)"><rect fill="#ffffd8" stroke="none" x="735" y="335" width="53.82080078125" height="24"/></g><g transform="translate(-478,-214) scale(1,1)"><path fill="none" stroke="#000000" d="M 735 335 L 788.82080078125 335 L 788.82080078125 359 L 735 359 L 735 335 Z Z" stroke-miterlimit="10"/></g><g transform="translate(-478,-214) scale(1,1)"><rect fill="#ffffd8" stroke="none" x="735" y="320" width="21.5283203125" height="15"/></g><g transform="translate(-478,-214) scale(1,1)"><path fill="none" stroke="#000000" d="M 735 320 L 756.5283203125 320 L 756.5283203125 335 L 735 335 L 735 320 Z Z" stroke-miterlimit="10"/></g><g transform="translate(-478,-214) scale(1,1)"><rect fill="#ffffd8" stroke="none" x="735" y="334" width="53.82080078125" height="25"/></g><g transform="translate(-478,-214) scale(1,1)"><path fill="none" stroke="#000000" d="M 735 334 L 788.82080078125 334 L 788.82080078125 359 L 735 359 L 735 334 Z Z" stroke-miterlimit="10"/></g><g transform="translate(-478,-214) scale(1,1)"><g><path fill="none" stroke="none"/><text fill="#000000" stroke="none" font-family="Arial" font-size="13px" font-style="normal" font-weight="bold" text-decoration="none" x="741.32177734375" y="354.5">service</text></g></g><g transform="translate(-478,-214) scale(1,1)"><rect fill="#C0C0C0" stroke="none" x="726" y="435" width="33.66250000000002" height="15" opacity="0.2"/></g><g transform="translate(-478,-214) scale(1,1)"><rect fill="#C0C0C0" stroke="none" x="726" y="449" width="84.15625" height="25" opacity="0.2"/></g><g transform="translate(-478,-214) scale(1,1)"><rect fill="#ffffd8" stroke="none" x="719" y="443" width="84.15625" height="24"/></g><g transform="translate(-478,-214) scale(1,1)"><path fill="none" stroke="#000000" d="M 719 443 L 803.15625 443 L 803.15625 467 L 719 467 L 719 443 Z Z" stroke-miterlimit="10"/></g><g transform="translate(-478,-214) scale(1,1)"><rect fill="#ffffd8" stroke="none" x="719" y="428" width="33.66250000000002" height="15"/></g><g transform="translate(-478,-214) scale(1,1)"><path fill="none" stroke="#000000" d="M 719 428 L 752.6625 428 L 752.6625 443 L 719 443 L 719 428 Z Z" stroke-miterlimit="10"/></g><g transform="translate(-478,-214) scale(1,1)"><rect fill="#ffffd8" stroke="none" x="719" y="442" width="84.15625" height="25"/></g><g transform="translate(-478,-214) scale(1,1)"><path fill="none" stroke="#000000" d="M 719 442 L 803.15625 442 L 803.15625 467 L 719 467 L 719 442 Z Z" stroke-miterlimit="10"/></g><g transform="translate(-478,-214) scale(1,1)"><g><path fill="none" stroke="none"/><text fill="#000000" stroke="none" font-family="Arial" font-size="13px" font-style="normal" font-weight="bold" text-decoration="none" x="726.765869140625" y="462.5">service.impl</text></g></g><g transform="translate(-478,-214) scale(1,1)"><rect fill="#C0C0C0" stroke="none" x="495" y="435" width="19.600000000000023" height="15" opacity="0.2"/></g><g transform="translate(-478,-214) scale(1,1)"><rect fill="#C0C0C0" stroke="none" x="495" y="449" width="49" height="25" opacity="0.2"/></g><g transform="translate(-478,-214) scale(1,1)"><rect fill="#ffffd8" stroke="none" x="488" y="443" width="49" height="24"/></g><g transform="translate(-478,-214) scale(1,1)"><path fill="none" stroke="#000000" d="M 488 443 L 537 443 L 537 467 L 488 467 L 488 443 Z Z" stroke-miterlimit="10"/></g><g transform="translate(-478,-214) scale(1,1)"><rect fill="#ffffd8" stroke="none" x="488" y="428" width="19.600000000000023" height="15"/></g><g transform="translate(-478,-214) scale(1,1)"><path fill="none" stroke="#000000" d="M 488 428 L 507.6 428 L 507.6 443 L 488 443 L 488 428 Z Z" stroke-miterlimit="10"/></g><g transform="translate(-478,-214) scale(1,1)"><rect fill="#ffffd8" stroke="none" x="488" y="442" width="49" height="25"/></g><g transform="translate(-478,-214) scale(1,1)"><path fill="none" stroke="#000000" d="M 488 442 L 537 442 L 537 467 L 488 467 L 488 442 Z Z" stroke-miterlimit="10"/></g><g transform="translate(-478,-214) scale(1,1)"><g><path fill="none" stroke="none"/><text fill="#000000" stroke="none" font-family="Arial" font-size="13px" font-style="normal" font-weight="bold" text-decoration="none" x="494.79638671875" y="462.5">model</text></g></g><g transform="translate(-478,-214) scale(1,1)"><rect fill="#C0C0C0" stroke="none" x="744" y="231" width="19.600000000000023" height="15" opacity="0.2"/></g><g transform="translate(-478,-214) scale(1,1)"><rect fill="#C0C0C0" stroke="none" x="744" y="245" width="49" height="25" opacity="0.2"/></g><g transform="translate(-478,-214) scale(1,1)"><rect fill="#ffffd8" stroke="none" x="737" y="239" width="49" height="24"/></g><g transform="translate(-478,-214) scale(1,1)"><path fill="none" stroke="#000000" d="M 737 239 L 786 239 L 786 263 L 737 263 L 737 239 Z Z" stroke-miterlimit="10"/></g><g transform="translate(-478,-214) scale(1,1)"><rect fill="#ffffd8" stroke="none" x="737" y="224" width="19.600000000000023" height="15"/></g><g transform="translate(-478,-214) scale(1,1)"><path fill="none" stroke="#000000" d="M 737 224 L 756.6 224 L 756.6 239 L 737 239 L 737 224 Z Z" stroke-miterlimit="10"/></g><g transform="translate(-478,-214) scale(1,1)"><rect fill="#ffffd8" stroke="none" x="737" y="238" width="49" height="25"/></g><g transform="translate(-478,-214) scale(1,1)"><path fill="none" stroke="#000000" d="M 737 238 L 786 238 L 786 263 L 737 263 L 737 238 Z Z" stroke-miterlimit="10"/></g><g transform="translate(-478,-214) scale(1,1)"><g><path fill="none" stroke="none"/><text fill="#000000" stroke="none" font-family="Arial" font-size="13px" font-style="normal" font-weight="bold" text-decoration="none" x="749.575927734375" y="258.5">web</text></g></g><g transform="translate(-478,-214) scale(1,1)"><path fill="none" stroke="#000000" d="M 761 607 L 761 552" stroke-miterlimit="10" stroke-dasharray="3"/></g><g transform="translate(-478,-214) scale(1,1)"><path fill="#FFFFFF" stroke="none" d="M 769.419035512032 572.3253497152483 L 761 552 L 752.580964487968 572.3253497152483"/></g><g transform="translate(-478,-214) scale(1,1)"><path fill="none" stroke="#000000" d="M 769.419035512032 572.3253497152483 L 761 552 L 752.580964487968 572.3253497152483 L 769.419035512032 572.3253497152483" stroke-miterlimit="10"/></g><g transform="translate(-478,-214) scale(1,1)"><path fill="none" stroke="#000000" d="M 761 427 L 761 360" stroke-miterlimit="10" stroke-dasharray="3"/></g><g transform="translate(-478,-214) scale(1,1)"><path fill="#FFFFFF" stroke="none" d="M 769.419035512032 380.3253497152483 L 761 360 L 752.580964487968 380.3253497152483"/></g><g transform="translate(-478,-214) scale(1,1)"><path fill="none" stroke="#000000" d="M 769.419035512032 380.3253497152483 L 761 360 L 752.580964487968 380.3253497152483 L 769.419035512032 380.3253497152483" stroke-miterlimit="10"/></g><g transform="translate(-478,-214) scale(1,1)"><path fill="none" stroke="#000000" d="M 736 523 L 538 456" stroke-miterlimit="10" stroke-dasharray="3"/></g><g transform="translate(-478,-214) scale(1,1)"><path fill="none" stroke="#000000" d="M 548.975752343213 455.27002705498415 L 538 456 L 546.2771977300134 463.2448600910066" stroke-miterlimit="10"/></g><g transform="translate(-478,-214) scale(1,1)"><path fill="none" stroke="#000000" d="M 733 607 L 538 466" stroke-miterlimit="10" stroke-dasharray="3"/></g><g transform="translate(-478,-214) scale(1,1)"><path fill="none" stroke="#000000" d="M 548.7018758003511 468.5435908385309 L 538 466 L 543.7687786193553 475.3659592803337" stroke-miterlimit="10"/></g><g transform="translate(-478,-214) scale(1,1)"><path fill="none" stroke="#000000" d="M 734 351 L 538 436" stroke-miterlimit="10" stroke-dasharray="3"/></g><g transform="translate(-478,-214) scale(1,1)"><path fill="none" stroke="#000000" d="M 545.6488206891527 428.09458779915997 L 538 436 L 548.9985035526687 435.81856240209095" stroke-miterlimit="10"/></g><g transform="translate(-478,-214) scale(1,1)"><path fill="none" stroke="#000000" d="M 718 447 L 538 447" stroke-miterlimit="10" stroke-dasharray="3"/></g><g transform="translate(-478,-214) scale(1,1)"><path fill="none" stroke="#000000" d="M 548.1626748576241 442.790482243984 L 538 447 L 548.1626748576241 451.209517756016" stroke-miterlimit="10"/></g><g transform="translate(-478,-214) scale(1,1)"><path fill="none" stroke="#000000" d="M 736 263 L 536 427" stroke-miterlimit="10" stroke-dasharray="3"/></g><g transform="translate(-478,-214) scale(1,1)"><path fill="none" stroke="#000000" d="M 541.1892998474035 417.3009708169457 L 536 427 L 546.5276384179732 423.8111398054454" stroke-miterlimit="10"/></g><g transform="translate(-478,-214) scale(1,1)"><path fill="none" stroke="#000000" d="M 761 264 L 761 319" stroke-miterlimit="10" stroke-dasharray="3"/></g><g transform="translate(-478,-214) scale(1,1)"><path fill="none" stroke="#000000" d="M 756.790482243984 308.83732514237585 L 761 319 L 765.209517756016 308.83732514237585" stroke-miterlimit="10"/></g><g transform="translate(-478,-214) scale(1,1)"><path fill="none" stroke="#000000" d="M 761 468 L 761 511" stroke-miterlimit="10" stroke-dasharray="3"/></g><g transform="translate(-478,-214) scale(1,1)"><path fill="none" stroke="#000000" d="M 756.790482243984 500.83732514237585 L 761 511 L 765.209517756016 500.83732514237585" stroke-miterlimit="10"/></g></g></svg>