<svg xmlns="http://www.w3.org/2000/svg" viewBox="0 0 19.64 20.01"><defs><style>.cls-1{fill:#fff;}</style></defs><title>google</title><g id="Layer_2" data-name="Layer 2"><g id="Layer_1-2" data-name="Layer 1"><path id="Union_21" data-name="Union 21" class="cls-1" d="M4.41,11.94A6,6,0,0,0,10.05,16a6.06,6.06,0,0,0,3.44-1h0a4.83,4.83,0,0,0,1.93-3H9.94V8.12H19.4a10.39,10.39,0,0,1-2.69,9.46l-.05.06h0A9.67,9.67,0,0,1,9.89,20a9.93,9.93,0,0,1-8.82-5.48,10,10,0,0,1,0-9A10.13,10.13,0,0,1,14.71,1.13a10.25,10.25,0,0,1,2.06,1.4l-2.9,2.9a5.25,5.25,0,0,0-3.82-1.5A5.94,5.94,0,0,0,4.41,8.07h0A6.36,6.36,0,0,0,4.08,10a5.82,5.82,0,0,0,.33,1.94"/></g></g></svg>