<svg xmlns="http://www.w3.org/2000/svg" viewBox="0 0 19.25 16.23"><defs><style>.cls-1{fill:#fff;}</style></defs><title>twitter</title><g id="Layer_2" data-name="Layer 2"><g id="Layer_1-2" data-name="Layer 1"><path id="Path_2" data-name="Path 2" class="cls-1" d="M17.56,4.27v.56A11.82,11.82,0,0,1,6.17,16.23h0A11.3,11.3,0,0,1,0,14.55H.93A8.42,8.42,0,0,0,6,12.68a3.82,3.82,0,0,1-3.74-2.8,4,4,0,0,0,1.5,0A4.56,4.56,0,0,1,.19,6h0a4.75,4.75,0,0,0,2.24.37A3.94,3.94,0,0,1,1.12.91,11.42,11.42,0,0,0,9.53,5,4.33,4.33,0,0,1,10.65,1.1a3.89,3.89,0,0,1,5.61.19h0A10.74,10.74,0,0,0,18.87.35,4.29,4.29,0,0,1,17,2.59a7.93,7.93,0,0,0,2.25-.74A3.87,3.87,0,0,1,17.56,4.27Z"/></g></g></svg>