<svg xmlns="http://www.w3.org/2000/svg" viewBox="0 0 20 16.33"><defs><style>.cls-1{fill:#fff;}</style></defs><title>Weibo_1</title><g id="Layer_2" data-name="Layer 2"><g id="Layer_1-2" data-name="Layer 1"><g id="Px5a12.tif"><path class="cls-1" d="M8.62,16.33a12.35,12.35,0,0,1-5.3-1.09A6.7,6.7,0,0,1,1.1,13.67a4,4,0,0,1-.93-4A7.91,7.91,0,0,1,1.39,7.22a14,14,0,0,1,4.18-4,6.09,6.09,0,0,1,2.33-.9,2.88,2.88,0,0,1,.88,0A1.36,1.36,0,0,1,10,3.71,3.87,3.87,0,0,1,9.79,5c0,.11-.11.25,0,.32a.52.52,0,0,0,.35,0c.37-.12.73-.28,1.11-.39a5.28,5.28,0,0,1,2-.29,2.26,2.26,0,0,1,1,.24A1.34,1.34,0,0,1,14.94,6a2.68,2.68,0,0,1-.15,1l-.09.25c-.11.29-.06.4.24.49a4.62,4.62,0,0,1,1.27.6,2.61,2.61,0,0,1,1,3.29,5.69,5.69,0,0,1-1.84,2.36,10.15,10.15,0,0,1-4.41,2,10.09,10.09,0,0,1-1.1.18C9.39,16.29,8.9,16.31,8.62,16.33Zm0-9.17a8.74,8.74,0,0,0-3.75.77A5.41,5.41,0,0,0,2.58,9.77a2.78,2.78,0,0,0-.19,3.11A3.76,3.76,0,0,0,3.9,14.3a6.87,6.87,0,0,0,2.83.83,8.67,8.67,0,0,0,4.46-.76,5.41,5.41,0,0,0,2.27-1.83,2.76,2.76,0,0,0,.16-3.12,3.82,3.82,0,0,0-1.45-1.37A7.12,7.12,0,0,0,8.64,7.16Z"/><path class="cls-1" d="M20,5.14A5.69,5.69,0,0,1,19.74,7a.76.76,0,0,1-.93.51.75.75,0,0,1-.53-.94,4,4,0,0,0,.07-2.15,3.76,3.76,0,0,0-4-2.83l-.47.07A.76.76,0,0,1,13,1a.77.77,0,0,1,.61-.86A5.3,5.3,0,0,1,19.83,4c0,.18.08.37.11.55S20,5,20,5.14Z"/><path class="cls-1" d="M17.31,5.34c0,.25-.08.5-.14.74a.66.66,0,1,1-1.26-.36,1.26,1.26,0,0,0-.33-1.29,1.21,1.21,0,0,0-1-.35l-.15,0a.66.66,0,0,1-.23-1.3,2.45,2.45,0,0,1,1.64.2A2.66,2.66,0,0,1,17.31,5.34Z"/><path class="cls-1" d="M7.53,14.35a3.53,3.53,0,0,1-2-.49,2.45,2.45,0,0,1-.69-3.52A3.5,3.5,0,0,1,8,8.78a2.83,2.83,0,0,1,2.12.92,2.44,2.44,0,0,1,.17,3.1A3.48,3.48,0,0,1,7.53,14.35Zm-.76-3.24a1.28,1.28,0,0,0-1.2.79.86.86,0,0,0,.65,1.19,1.26,1.26,0,0,0,1.33-.6.93.93,0,0,0,0-1A.92.92,0,0,0,6.77,11.11Zm1.4.29A.45.45,0,0,0,8.63,11a.33.33,0,0,0-.35-.34.48.48,0,0,0-.47.44A.33.33,0,0,0,8.17,11.4Z"/></g></g></g></svg>