<svg id="FxSymbol0-019" xmlns="http://www.w3.org/2000/svg" viewBox="0 0 50 50">
  <title>Artboard 1</title>
  <g>
    <circle cx="26.3" cy="28.1" r="14.4" fill="#bad80a"/>
    <path d="M12.1,31a16.14,16.14,0,0,0,3.5,6.9h4.8a3.8,3.8,0,1,0,0-7.6h-.6c0-.2.2-.6.2-.8a3.8,3.8,0,0,0-3.8-3.8H12A13.57,13.57,0,0,0,12.1,31Zm11.2-8.3a4,4,0,0,0,4,4H40.6c0-.6-.2-1-.2-1.7a13.45,13.45,0,0,0-7.1-9.4H31.4a2.54,2.54,0,0,0-2.5,2.5v.6H27.2a4.13,4.13,0,0,0-3.9,4Zm17.3,7.1H32.7a3.27,3.27,0,0,0-3.3,3.3,3.71,3.71,0,0,0,.4,1.5,3.34,3.34,0,0,0-2.3,3.1A3.27,3.27,0,0,0,30.8,41h2.3a14,14,0,0,0,7.5-11.2Z" fill="#00bcf2"/>
    <path d="M16,12.5A6.34,6.34,0,0,1,9.7,6.2C9.8,5.6,9.4,5,8.5,5c-.6,0-1,.6-1,1.3a6.21,6.21,0,0,1-6.3,6.3c-.6,0-1.3.4-1.3,1a1.4,1.4,0,0,0,1.3,1.3,6.34,6.34,0,0,1,6.3,6.3,1.4,1.4,0,0,0,1.3,1.3c.7,0,1.2-.8,1.2-1.5a6.34,6.34,0,0,1,6.3-6.3,1.4,1.4,0,0,0,1.3-1.3A1.89,1.89,0,0,0,16,12.5Z" fill="#0078d7"/>
    <circle cx="46.9" cy="39.8" r="2.7" fill="#0078d7"/>
    <circle cx="38.1" cy="8.9" r="4.2" fill="#0078d7"/>
    <path d="M49.8,20.8c-.8-2.5-4.2-4-9.6-4a37,37,0,0,0-4.6.2,24.94,24.94,0,0,1,2.3,2.3h2.3c4.8,0,6.9,1,7.1,2.1.8,2.5-6.3,8.3-19.4,12.5a50.85,50.85,0,0,1-15.8,2.7c-4.8,0-6.9-1-7.1-2.1-.4-1.5,1.9-4.2,6.7-7.1a16.45,16.45,0,0,1,.4-3.1c-6.3,3.3-10.6,7.5-9.6,11,.8,2.5,4.2,4,9.6,4a58.07,58.07,0,0,0,16.7-2.9c6-1.9,11.7-4.4,15.4-7.1,4.6-3.1,6.4-6,5.6-8.5Z" fill="#0078d7"/>
  </g>
</svg>
