<svg xmlns="http://www.w3.org/2000/svg" width="18" height="18" viewBox="0 0 18 18"><path d="M9.01 0C9.61 0 10.11 0.1 10.61 0.2 11.21 0.4 11.71 0.6 12.11 0.8 12.61 1.1 13.01 1.4 13.41 1.8 13.71 2.2 14.11 2.6 14.31 3.1 14.61 3.5 14.81 4 15.01 4.5 15.11 5.1 15.21 5.6 15.21 6.2 15.21 7 15.01 7.8 14.71 8.6 14.41 9.3 13.91 9.9 13.31 10.5 12.81 11 12.51 11.5 12.21 12.1 11.91 12.7 11.81 13.4 11.81 14.1L11.81 16.3C11.81 16.5 11.81 16.8 11.71 17 11.61 17.2 11.51 17.4 11.31 17.5 11.21 17.7 11.01 17.8 10.81 17.9 10.61 18 10.31 18 10.11 18L7.91 18C7.61 18 7.41 18 7.21 17.9 7.01 17.8 6.81 17.7 6.71 17.5 6.51 17.4 6.41 17.2 6.31 17 6.21 16.8 6.21 16.5 6.21 16.3L6.21 14.1C6.21 13.4 6.01 12.7 5.81 12.1 5.51 11.5 5.11 11 4.71 10.5 4.11 9.9 3.61 9.3 3.31 8.6 3.01 7.8 2.81 7 2.81 6.2 2.81 5.6 2.91 5.1 3.01 4.5 3.21 4 3.41 3.5 3.61 3.1 3.91 2.6 4.21 2.2 4.61 1.8 5.01 1.4 5.41 1.1 5.91 0.8 6.31 0.6 6.81 0.4 7.31 0.2 7.91 0.1 8.41 0 9.01 0ZM10.11 16.9C10.31 16.9 10.41 16.8 10.51 16.7 10.61 16.6 10.71 16.5 10.71 16.3L10.71 14.6 7.31 14.6 7.31 16.3C7.31 16.5 7.41 16.6 7.51 16.7 7.61 16.8 7.71 16.9 7.91 16.9L10.11 16.9ZM10.71 13.5C10.81 12.7 11.01 12.1 11.31 11.4 11.61 10.8 12.01 10.3 12.51 9.7 13.01 9.2 13.41 8.7 13.71 8.1 13.91 7.5 14.11 6.9 14.11 6.2 14.11 5.5 13.91 4.8 13.61 4.2 13.41 3.6 13.01 3.1 12.61 2.6 12.11 2.2 11.61 1.8 11.01 1.5 10.31 1.3 9.71 1.1 9.01 1.1 8.31 1.1 7.61 1.3 7.01 1.5 6.41 1.8 5.91 2.2 5.41 2.6 5.01 3.1 4.61 3.6 4.31 4.2 4.11 4.8 3.91 5.5 3.91 6.2 3.91 6.9 4.11 7.5 4.31 8.1 4.61 8.7 5.01 9.2 5.41 9.7 6.01 10.3 6.41 10.8 6.71 11.4 7.01 12.1 7.21 12.7 7.31 13.5L10.71 13.5Z" fill="#fff"/></svg>