<svg xmlns="http://www.w3.org/2000/svg" width="18" height="18" viewBox="0 0 18 18"><path d="M11.9 3.4L6.3 3.4 6.3 2.3 11.9 2.3 11.9 3.4ZM11.9 12.4L6.3 12.4 6.3 11.3 11.9 11.3 11.9 12.4ZM11.9 14.6L6.3 14.6 6.3 13.5 11.9 13.5 11.9 14.6ZM13 0C13.2 0 13.3 0 13.4 0.1 13.6 0.1 13.7 0.2 13.8 0.3 13.9 0.4 14 0.6 14 0.7 14.1 0.8 14.1 1 14.1 1.1L14.1 16.9 4 16.9 4 1.1C4 1 4 0.8 4.1 0.7 4.1 0.6 4.2 0.4 4.3 0.3 4.4 0.2 4.6 0.1 4.7 0.1 4.8 0 5 0 5.1 0L13 0ZM13 1.1L5.1 1.1 5.1 15.8 13 15.8 13 1.1Z" fill="#fff"/></svg>