<svg xmlns="http://www.w3.org/2000/svg" width="642" height="245" viewBox="0 0 642 245"><path d="M293.6 243.1C255.8 235.5 228.3 201.2 228.3 161.5 228.3 121.8 255.7 87.8 292.9 80 299 40.7 332.6 10.8 371.7 10.8 385.2 10.8 398.4 14.3 410.2 20.9 422 27.5 431.8 37.1 438.9 48.6 449.9 43.1 462 40.3 474.3 40.3 508.5 40.3 538.9 62.3 550.8 94.8 568.9 90.9 587.9 93.9 604 103.1 620.1 112.3 632.2 127.1 638.1 144.7 644 162.3 643.2 181.5 635.9 198.5 628.5 215.6 615.2 229.3 598.4 237.2L597.2 237.7C590.2 240.9 582.6 243 574.9 243.8 574.3 243.9 573.6 243.9 573 244 563.2 244.8 550 245 528.9 245L309.4 245C304.1 245 298.7 244.3 293.6 243.1L293.6 243.1Z" fill="#0078D7"/><path d="M35.6 146.3C30.7 146.3 26.1 147.3 21.8 149.1 17.5 151 13.7 153.5 10.5 156.7 7.2 159.8 4.7 163.6 2.9 167.9 1 172.2 0 176.8 0 181.8 0 186.8 0.9 191.4 2.8 195.7 4.6 200 7.2 203.7 10.4 207 13.6 210.2 17.3 212.7 21.6 214.6 25.9 216.4 30.5 217.3 35.4 217.3L141.5 217.3C148 217.3 154.1 216.1 159.9 213.6 165.6 211.2 170.6 207.8 174.9 203.6 179.1 199.3 182.5 194.2 184.9 188.5 187.4 182.7 188.6 176.5 188.6 170 188.6 163.5 187.4 157.3 184.9 151.6 182.5 145.8 179.1 140.8 174.9 136.5 170.6 132.2 165.6 128.8 159.9 126.4 154.1 123.9 148 122.7 141.5 122.7 138.6 122.7 135.8 122.9 132.9 123.5 130.4 119.7 127.6 116.3 124.4 113.2 121.2 110.2 117.6 107.6 113.8 105.5 110 103.4 106 101.8 101.7 100.7 97.4 99.6 93 99 88.4 99 81.6 99 75.2 100.2 69.2 102.6 63.1 105 57.7 108.3 53.1 112.6 48.4 116.8 44.5 121.8 41.5 127.6 38.5 133.4 36.5 139.6 35.6 146.3Z" fill="#0078D7"/><path d="M242.3 23.5C244.7 23.5 247 24 249.1 24.9 251.3 25.8 253.2 27.1 254.8 28.6 256.4 30.2 257.6 32.1 258.6 34.2 259.5 36.3 260 38.7 260 41.1 260 43.6 259.5 45.9 258.6 48 257.7 50.1 256.4 52 254.8 53.6 253.2 55.2 251.4 56.5 249.2 57.4 247.1 58.3 244.8 58.8 242.4 58.8L189.9 58.8C186.6 58.8 183.6 58.1 180.7 56.9 177.9 55.7 175.4 54 173.3 51.9 171.2 49.8 169.5 47.3 168.3 44.4 167.1 41.6 166.5 38.5 166.5 35.3 166.5 32 167.1 29 168.3 26.1 169.5 23.2 171.2 20.7 173.3 18.6 175.4 16.5 177.9 14.8 180.7 13.6 183.6 12.4 186.6 11.8 189.9 11.8 191.3 11.8 192.7 11.9 194.1 12.2 195.3 10.3 196.7 8.6 198.3 7.1 199.9 5.5 201.7 4.3 203.5 3.2 205.4 2.2 207.4 1.4 209.6 0.8 211.7 0.3 213.9 0 216.1 0 219.5 0 222.7 0.6 225.7 1.8 228.7 3 231.4 4.6 233.7 6.7 236 8.8 237.9 11.3 239.4 14.2 240.9 17.1 241.9 20.2 242.3 23.5Z" fill="#0078D7"/><path d="M195.1 76.4C188.2 76.4 181.7 77.7 175.7 80.3 169.5 82.9 164.2 86.4 159.8 90.9 155.2 95.3 151.6 100.6 149 106.6 146.3 112.7 145 119.2 145 126.2 145 133.1 146.3 139.6 148.9 145.7 151.5 151.6 155 156.9 159.6 161.5 164.1 166 169.4 169.5 175.4 172.1 181.4 174.7 187.9 176 194.7 176L343.8 176C352.9 176 361.5 174.3 369.6 170.8 377.7 167.4 384.7 162.6 390.7 156.7 396.7 150.6 401.4 143.6 404.8 135.5 408.3 127.4 410 118.8 410 109.6 410 100.4 408.3 91.8 404.8 83.8 401.4 75.7 396.7 68.6 390.7 62.7 384.7 56.6 377.7 51.8 369.6 48.4 361.5 44.9 352.9 43.2 343.8 43.2 339.8 43.2 335.8 43.6 331.7 44.4 328.3 39 324.3 34.2 319.8 30 315.2 25.6 310.3 22 304.9 19.1 299.6 16.1 293.9 13.9 287.9 12.3 281.8 10.8 275.6 10 269.2 10 259.6 10 250.6 11.7 242.2 15.1 233.6 18.4 226.1 23.1 219.5 29.1 213 34.9 207.6 41.9 203.4 50.1 199 58.2 196.3 67 195.1 76.4Z" fill="#00BCF2"/><path d="M357 143C357 171.7 333.7 195 305 195 276.3 195 253 171.7 253 143 253 114.3 276.3 91 305 91 333.7 91 357 114.3 357 143Z" fill="#0078D7"/><path d="M305 78C310.9 78 316.5 78.8 322 80.3 327.5 81.8 332.5 84 337.3 86.8 342 89.5 346.3 92.9 350.2 96.8 354.1 100.7 357.5 105 360.3 109.8 363 114.5 365.2 119.5 366.7 125 368.2 130.5 369 136.1 369 142 369 147.9 368.2 153.5 366.7 159 365.2 164.5 363 169.6 360.3 174.3 357.5 179 354.1 183.3 350.2 187.3 346.3 191.1 342 194.5 337.3 197.3 332.5 200 327.5 202.2 322 203.8 316.5 205.3 310.9 206 305 206 299.1 206 293.5 205.3 288 203.8 282.5 202.2 277.4 200 272.7 197.3 268 194.5 263.7 191.1 259.8 187.3 255.9 183.3 252.5 179 249.8 174.3 247 169.6 244.8 164.5 243.3 159 241.8 153.5 241 147.9 241 142 241 136.1 241.8 130.5 243.3 125 244.8 119.5 247 114.5 249.8 109.8 252.5 105 255.9 100.7 259.8 96.8 263.7 92.9 268 89.5 272.7 86.8 277.4 84 282.5 81.8 288 80.3 293.5 78.8 299.1 78 305 78ZM342.7 120.8L334.2 112.3 293 153.5 275.8 136.3 267.3 144.8 293 170.5 342.7 120.8Z" fill="#FFF"/></svg>