<svg xmlns="http://www.w3.org/2000/svg" viewBox="0 0 19.53 20.01"><defs><style>.cls-1{fill:#0f0f0f;}</style></defs><title>CxiFJ0.tif (2)</title><g id="Layer_2" data-name="Layer 2"><g id="Layer_1-2" data-name="Layer 1"><g id="CxiFJ0.tif"><path class="cls-1" d="M10.19,20H9.33l-.11,0c-.46,0-.92-.08-1.37-.17A9.43,9.43,0,0,1,3,17.2,10,10,0,0,1,.07,8.76,9.25,9.25,0,0,1,1.15,5.29,9.64,9.64,0,0,1,8.4.11a9.09,9.09,0,0,1,3.37.11A9.46,9.46,0,0,1,17.3,3.66a9.85,9.85,0,0,1,2,8.42,9.68,9.68,0,0,1-4.65,6.58A9.21,9.21,0,0,1,10.8,20ZM8.06,14.2l-.13,0a7.43,7.43,0,0,1-1.52-.35,3.61,3.61,0,0,1-2.29-2.38,6.13,6.13,0,0,1-.25-2.17,3.55,3.55,0,0,1,.81-2.15.33.33,0,0,0,.07-.34,3.51,3.51,0,0,1,.13-2.26A.13.13,0,0,1,5,4.46a1.92,1.92,0,0,1,.79.11,5.91,5.91,0,0,1,1.58.81.27.27,0,0,0,.2,0c.42-.09.84-.19,1.27-.24A8.18,8.18,0,0,1,12,5.42a.22.22,0,0,0,.19,0c.38-.22.76-.45,1.15-.64a2.48,2.48,0,0,1,1.07-.29c.23,0,.23,0,.31.21,0,0,0,.09,0,.14a3.49,3.49,0,0,1,0,2.12.17.17,0,0,0,0,.12,3.59,3.59,0,0,1,.82,1.71,5.72,5.72,0,0,1-.31,3,3.35,3.35,0,0,1-1.54,1.77,5.39,5.39,0,0,1-1.78.58l-.51.08a2.2,2.2,0,0,1,.6,1.54c0,.46,0,.91,0,1.37s0,.94,0,1.42a.46.46,0,0,0,.58.48l.13,0a8.73,8.73,0,0,0,1.55-.72,9.52,9.52,0,0,0,4.52-10.1,9.2,9.2,0,0,0-3.3-5.53A8.86,8.86,0,0,0,7.66.8,8.89,8.89,0,0,0,2.47,4.18,9.43,9.43,0,0,0,.6,11.34a9.17,9.17,0,0,0,1.47,3.93A9.24,9.24,0,0,0,6.75,19a.49.49,0,0,0,.72-.51c0-.47,0-.94,0-1.41V17c-.35,0-.7.07-1,.07a2.24,2.24,0,0,1-1.61-.65,2.68,2.68,0,0,1-.53-.87,2.55,2.55,0,0,0-1-1.27,1,1,0,0,1-.16-.12C3,14,2.92,14,3,13.84s.17-.13.28-.14a1.42,1.42,0,0,1,.89.27,2.39,2.39,0,0,1,.69.76,1.82,1.82,0,0,0,1.08.9,2.14,2.14,0,0,0,1.53-.16.09.09,0,0,0,0-.07A2.14,2.14,0,0,1,8.06,14.2Z"/></g></g></g></svg>