<svg xmlns="http://www.w3.org/2000/svg" viewBox="0 0 20.04 20.49"><defs><style>.cls-1{fill:#ed412d;}.cls-2{fill:#2da94f;}.cls-3{fill:#fdbd00;}.cls-4{fill:#3e82f7;}</style></defs><title>Asset 56</title><g id="Layer_2" data-name="Layer 2"><g id="Layer_1-2" data-name="Layer 1"><g id="HrcCOE.tif"><path class="cls-1" d="M17,2.54l-3,3A5.89,5.89,0,0,0,8.55,4.43,6,6,0,0,0,4.5,8.32L4.08,8,1.26,5.85c-.19-.15-.19-.15-.08-.36A10.17,10.17,0,0,1,6.31.79,9.63,9.63,0,0,1,9,.08a10.14,10.14,0,0,1,2.4,0,10.28,10.28,0,0,1,5.49,2.38l.1.09S17,2.55,17,2.54Z"/><path class="cls-2" d="M16.94,17.94a9.1,9.1,0,0,1-1.22.95A9.65,9.65,0,0,1,12,20.33a9,9,0,0,1-2.13.15,10.22,10.22,0,0,1-8.77-5.59c0-.08,0-.12.05-.18l3-2.33.28-.21.09.2A6,6,0,0,0,9,16.18a6.12,6.12,0,0,0,1.86.12,6.42,6.42,0,0,0,2.25-.56,5,5,0,0,0,.51-.27.11.11,0,0,1,.15,0l3.11,2.41Z"/></g><path class="cls-3" d="M4.49,8.35c-.68-.58-2-1.52-3.43-2.65a10.41,10.41,0,0,0,0,9.07l3.45-2.63A5.08,5.08,0,0,1,4.32,9C4.41,8.7,4.49,8.35,4.49,8.35Z"/><path class="cls-4" d="M10.32,8.35l-.05,4,5.43.07,0,.26a5.81,5.81,0,0,1-.73,1.49,4.62,4.62,0,0,1-1.31,1.26L16.84,18c.09-.08.23-.21.37-.36a7.46,7.46,0,0,0,.61-.69,10.59,10.59,0,0,0,.95-1.39A10.62,10.62,0,0,0,20,11.48a10.33,10.33,0,0,0,0-2.12c0-.36-.09-.67-.13-.9Z"/></g></g></svg>