<svg xmlns="http://www.w3.org/2000/svg" viewBox="0 0 19.1 18.92"><defs><style>.cls-1{fill:#e63c1d;}.cls-2{fill:#ffdb00;}.cls-3{fill:#21b338;}.cls-4{fill:#1a97df;}</style></defs><title>Asset 49</title><g id="Layer_2" data-name="Layer 2"><g id="Layer_1-2" data-name="Layer 1"><path class="cls-1" d="M16.9,12.66a1.69,1.69,0,0,0-2.39.24c-.6.84-4.54,5.85-11.1,3.7a2.15,2.15,0,0,0,.84.6,9.53,9.53,0,0,0,13.24-2.27A1.6,1.6,0,0,0,16.9,12.66Z"/><path class="cls-2" d="M4.25,12A10.07,10.07,0,0,1,6.51.37c-.35.12-.59.24-1,.36A9.5,9.5,0,0,0,.91,13.38a1.63,1.63,0,0,0,2.26.71A1.59,1.59,0,0,0,4.25,12Z"/><path class="cls-3" d="M10.45,0A1.66,1.66,0,0,0,8.66,1.68a1.65,1.65,0,0,0,1.43,1.91c1,.12,7.4,1.08,8.83,7.76a2.64,2.64,0,0,0,.12-1A9.37,9.37,0,0,0,10.45,0Z"/><path class="cls-4" d="M6.39,10c-.23.59-.35,1.31-.11,1.43s.35-.12.59-.48a2.61,2.61,0,0,0,.6,1c-.36.11-.6.35-.6.59s.6.72,1.31.72,1.2-.24,1.32-.6h.12c.12.36.59.6,1.31.6s1.31-.24,1.31-.72c0-.24-.24-.48-.59-.59a1.68,1.68,0,0,0,.59-1c.24.36.48.48.6.48s.12-.72-.12-1.43a2.19,2.19,0,0,0-.72-1V9c0-.24,0-.36-.12-.48h0V8.25A2.29,2.29,0,0,0,9.62,5.86,2.22,2.22,0,0,0,7.35,8.25v.23h0A.72.72,0,0,0,7.23,9v.12C6.87,9.2,6.63,9.56,6.39,10Z"/></g></g></svg>