<svg xmlns="http://www.w3.org/2000/svg" viewBox="0 0 20 16.65"><defs><style>.cls-1{fill:#4cc522;}</style></defs><title>lr0cB2.tif (2)</title><g id="Layer_2" data-name="Layer 2"><g id="Layer_1-2" data-name="Layer 1"><g id="lr0cB2.tif"><path class="cls-1" d="M0,5.86c.06-.32.1-.64.18-1A6.15,6.15,0,0,1,3,1.19,8,8,0,0,1,8.09,0a7.62,7.62,0,0,1,4.5,1.9,6.47,6.47,0,0,1,1.68,2.48.43.43,0,0,1-.39.56c-.22,0-.45,0-.68,0A7.37,7.37,0,0,0,7.75,7.72a4.82,4.82,0,0,0-1.07,3.37,7,7,0,0,0,.13.78c.08.36-.11.61-.46.55-.56-.09-1.11-.24-1.66-.35a.44.44,0,0,0-.3,0l-2,1.12c-.24.14-.42.14-.57,0a.44.44,0,0,1,0-.56L2.58,11l-.21-.16A5.83,5.83,0,0,1,0,6.71s0-.09,0-.14ZM9.17,3.32a.85.85,0,0,0-.85.84A.86.86,0,0,0,9.18,5,.85.85,0,0,0,10,4.16.83.83,0,0,0,9.17,3.32ZM5,3.32a.83.83,0,0,0-.84.84.84.84,0,1,0,1.68,0A.83.83,0,0,0,5,3.32Z"/><path class="cls-1" d="M17.75,14.72c.16.4.33.84.51,1.28a.45.45,0,0,1-.06.54c-.14.14-.32.14-.56,0l-1.81-.9a.56.56,0,0,0-.31,0,7.37,7.37,0,0,1-5.67-.91,4.68,4.68,0,0,1-2.14-2.66A4.12,4.12,0,0,1,8.8,7.79a6.4,6.4,0,0,1,3.8-1.87,7.27,7.27,0,0,1,4.58.74,5.06,5.06,0,0,1,2.54,2.69,4.16,4.16,0,0,1-.88,4.36A10.67,10.67,0,0,1,17.75,14.72Zm-1.89-6.4a.84.84,0,1,0,0,1.68.85.85,0,0,0,.85-.84A.84.84,0,0,0,15.86,8.32Zm-4.19,0a.85.85,0,0,0-.85.84.86.86,0,0,0,.86.84.84.84,0,0,0,0-1.68Z"/></g></g></g></svg>